<?xml version="1.0" encoding="utf-8"?>
<svg version="1.1" xmlns:xlink="http://www.w3.org/1999/xlink" width="72px" height="28px" xmlns="http://www.w3.org/2000/svg">
  <defs>
    <mask fill="white" id="clip4">
      <path d="M 0 24  L 0 4  C 0 1.76000000000001  1.76000000000001 0  4 0  L 34.7500000000009 0  L 68 0  C 70.24 0  72 1.76000000000001  72 4  L 72 24  C 72 26.24  70.24 28  68 28  L 4 28  C 1.76000000000001 28  0 26.24  0 24  Z " fill-rule="evenodd" />
    </mask>
  </defs>
  <g transform="matrix(1 0 0 1 -384 -71 )">
    <path d="M 0 24  L 0 4  C 0 1.76000000000001  1.76000000000001 0  4 0  L 34.7500000000009 0  L 68 0  C 70.24 0  72 1.76000000000001  72 4  L 72 24  C 72 26.24  70.24 28  68 28  L 4 28  C 1.76000000000001 28  0 26.24  0 24  Z " fill-rule="nonzero" fill="#e8f5ff" stroke="none" transform="matrix(1 0 0 1 384 71 )" />
    <path d="M 0 24  L 0 4  C 0 1.76000000000001  1.76000000000001 0  4 0  L 34.7500000000009 0  L 68 0  C 70.24 0  72 1.76000000000001  72 4  L 72 24  C 72 26.24  70.24 28  68 28  L 4 28  C 1.76000000000001 28  0 26.24  0 24  Z " stroke-width="2" stroke="#1979ff" fill="none" transform="matrix(1 0 0 1 384 71 )" mask="url(#clip4)" />
  </g>
</svg>