<?xml version="1.0" encoding="utf-8"?>
<svg version="1.1" xmlns:xlink="http://www.w3.org/1999/xlink" width="14px" height="14px" xmlns="http://www.w3.org/2000/svg">
  <g transform="matrix(1 0 0 1 -1546 -15 )">
    <path d="M 13.2662760416667 4.65264423076923  C 13.7554253472222 5.5556891025641  14 6.5176282051282  14 7.53846153846154  C 14 8.41346153846154  13.8146701388889 9.24919871794872  13.4440104166667 10.0456730769231  C 13.0733506944444 10.8421474358974  12.5750868055556 11.5292467948718  11.94921875 12.1069711538462  C 11.3233506944444 12.6846955128205  10.5789930555556 13.1446314102564  9.71614583333333 13.4867788461538  C 8.85329861111111 13.8289262820513  7.94791666666667 14  7 14  C 6.05208333333333 14  5.14670138888889 13.8289262820513  4.28385416666667 13.4867788461538  C 3.42100694444445 13.1446314102564  2.67664930555556 12.6846955128205  2.05078125 12.1069711538462  C 1.42491319444444 11.5292467948718  0.926649305555556 10.8421474358974  0.555989583333333 10.0456730769231  C 0.185329861111111 9.24919871794872  0 8.41346153846154  0 7.53846153846154  C 0 6.5176282051282  0.244574652777778 5.5556891025641  0.733723958333333 4.65264423076923  C 1.22287326388889 3.74959935897436  1.91102430555556 2.99238782051282  2.79817708333333 2.38100961538462  C 3.05946180555556 2.20152243589743  3.349609375 2.13141025641026  3.66861979166667 2.17067307692308  C 3.98763020833333 2.2099358974359  4.24131944444444 2.35016025641026  4.4296875 2.59134615384615  C 4.62413194444444 2.82692307692308  4.69856770833333 3.09194711538462  4.65299479166667 3.38641826923077  C 4.607421875 3.68088942307692  4.45703125 3.91786858974359  4.20182291666667 4.09735576923077  C 3.60633680555556 4.51241987179487  3.14605034722222 5.02003205128205  2.82096354166667 5.62019230769231  C 2.49587673611111 6.22035256410256  2.33333333333333 6.85977564102564  2.33333333333333 7.53846153846154  C 2.33333333333333 8.12179487179487  2.45638020833333 8.67848557692308  2.70247395833333 9.20853365384615  C 2.94856770833333 9.73858173076923  3.28125 10.1971153846154  3.70052083333333 10.5841346153846  C 4.11979166666667 10.9711538461538  4.61653645833333 11.2782451923077  5.19075520833333 11.5054086538462  C 5.76497395833333 11.7325721153846  6.36805555555556 11.8461538461538  7 11.8461538461538  C 7.63194444444445 11.8461538461538  8.23502604166667 11.7325721153846  8.80924479166667 11.5054086538462  C 9.38346354166667 11.2782451923077  9.88020833333333 10.9711538461538  10.2994791666667 10.5841346153846  C 10.71875 10.1971153846154  11.0514322916667 9.73858173076923  11.2975260416667 9.20853365384615  C 11.5436197916667 8.67848557692308  11.6666666666667 8.12179487179487  11.6666666666667 7.53846153846154  C 11.6666666666667 6.85977564102564  11.5041232638889 6.22035256410256  11.1790364583333 5.62019230769231  C 10.8539496527778 5.02003205128205  10.3936631944444 4.51241987179487  9.79817708333333 4.09735576923077  C 9.54296875 3.91786858974359  9.392578125 3.68088942307692  9.34700520833333 3.38641826923077  C 9.30143229166667 3.09194711538462  9.37586805555556 2.82692307692308  9.5703125 2.59134615384615  C 9.75868055555556 2.35016025641026  10.0138888888889 2.2099358974359  10.3359375 2.17067307692308  C 10.6579861111111 2.13141025641026  10.9466145833333 2.20152243589743  11.2018229166667 2.38100961538462  C 12.0889756944444 2.99238782051282  12.7771267361111 3.74959935897436  13.2662760416667 4.65264423076923  Z M 7.8203125 0.319711538461538  C 8.05121527777778 0.532852564102563  8.16666666666667 0.785256410256409  8.16666666666667 1.07692307692308  L 8.16666666666667 6.46153846153846  C 8.16666666666667 6.75320512820513  8.05121527777778 7.00560897435897  7.8203125 7.21875  C 7.58940972222222 7.43189102564102  7.31597222222222 7.53846153846154  7 7.53846153846154  C 6.68402777777778 7.53846153846154  6.41059027777778 7.43189102564102  6.1796875 7.21875  C 5.94878472222222 7.00560897435897  5.83333333333333 6.75320512820513  5.83333333333333 6.46153846153846  L 5.83333333333333 1.07692307692308  C 5.83333333333333 0.785256410256409  5.94878472222222 0.532852564102563  6.1796875 0.319711538461538  C 6.41059027777778 0.106570512820513  6.68402777777778 0  7 0  C 7.31597222222222 0  7.58940972222222 0.106570512820513  7.8203125 0.319711538461538  Z " fill-rule="nonzero" fill="#333333" stroke="none" transform="matrix(1 0 0 1 1546 15 )" />
  </g>
</svg>