<?xml version="1.0" encoding="utf-8"?>
<svg version="1.1" xmlns:xlink="http://www.w3.org/1999/xlink" width="32px" height="40px" xmlns="http://www.w3.org/2000/svg">
  <defs>
    <mask fill="white" id="clip3">
      <path d="M 22 10.5  C 22 18  15.4 22.5  11 30  C 6.6 22.5  0 18  0 10.5  C 0 7.62894064058969  1.19227876788737 3.29463006604482  5.33227379882584 1.20742480023426  C 6.81598019633019 0.459404625657896  8.67828778533614 0  11 0  C 19.8 0  22 6.60000000000002  22 10.5  Z " fill-rule="evenodd" />
    </mask>
    <filter x="231px" y="96px" width="32px" height="40px" filterUnits="userSpaceOnUse" id="filter4">
      <feOffset dx="1" dy="1" in="SourceAlpha" result="shadowOffsetInner" />
      <feGaussianBlur stdDeviation="2.5" in="shadowOffsetInner" result="shadowGaussian" />
      <feComposite in2="shadowGaussian" operator="atop" in="SourceAlpha" result="shadowComposite" />
      <feColorMatrix type="matrix" values="0 0 0 0 0  0 0 0 0 0  0 0 0 0 0  0 0 0 0.698039215686274 0  " in="shadowComposite" />
    </filter>
    <g id="widget5">
      <path d="M 22 10.5  C 22 18  15.4 22.5  11 30  C 6.6 22.5  0 18  0 10.5  C 0 7.62894064058969  1.19227876788737 3.29463006604482  5.33227379882584 1.20742480023426  C 6.81598019633019 0.459404625657896  8.67828778533614 0  11 0  C 19.8 0  22 6.60000000000002  22 10.5  Z " fill-rule="nonzero" fill="#009dd9" stroke="none" transform="matrix(1 0 0 1 235 100 )" />
      <path d="M 22 10.5  C 22 18  15.4 22.5  11 30  C 6.6 22.5  0 18  0 10.5  C 0 7.62894064058969  1.19227876788737 3.29463006604482  5.33227379882584 1.20742480023426  C 6.81598019633019 0.459404625657896  8.67828778533614 0  11 0  C 19.8 0  22 6.60000000000002  22 10.5  Z " stroke-width="2" stroke="#ffffff" fill="none" transform="matrix(1 0 0 1 235 100 )" mask="url(#clip3)" />
    </g>
  </defs>
  <g transform="matrix(1 0 0 1 -231 -96 )">
    <use xlink:href="#widget5" filter="url(#filter4)" />
    <use xlink:href="#widget5" />
  </g>
</svg>