<?xml version="1.0" encoding="utf-8"?>
<svg version="1.1" xmlns:xlink="http://www.w3.org/1999/xlink" width="5px" height="9px" xmlns="http://www.w3.org/2000/svg">
  <g transform="matrix(1 0 0 1 -14 -29 )">
    <path d="M 4.83506944444444 4.1044921875  C 4.94502314814815 4.2158203125  5 4.34765625  5 4.5  C 5 4.65234375  4.94502314814815 4.7841796875  4.83506944444444 4.8955078125  L 0.946180555555556 8.8330078125  C 0.836226851851852 8.9443359375  0.706018518518519 9  0.555555555555556 9  C 0.405092592592593 9  0.274884259259259 8.9443359375  0.164930555555556 8.8330078125  C 0.0549768518518519 8.7216796875  0 8.58984375  0 8.4375  L 0 0.5625  C 0 0.410156249999999  0.0549768518518519 0.278320312499999  0.164930555555556 0.1669921875  C 0.274884259259259 0.0556640624999993  0.405092592592593 0  0.555555555555556 0  C 0.706018518518519 0  0.836226851851852 0.0556640624999993  0.946180555555556 0.1669921875  L 4.83506944444444 4.1044921875  Z " fill-rule="nonzero" fill="#86909c" stroke="none" transform="matrix(1 0 0 1 14 29 )" />
  </g>
</svg>