<?xml version="1.0" encoding="utf-8"?>
<svg version="1.1" xmlns:xlink="http://www.w3.org/1999/xlink" width="84px" height="28px" xmlns="http://www.w3.org/2000/svg">
  <defs>
    <mask fill="white" id="clip2">
      <path d="M 0 24  L 0 4  C 0 1.76  1.75999999999999 0  4 0  L 54.6000000000022 0  L 80 0  C 82.24 0  84 1.76  84 4  L 84 24  C 84 26.24  82.24 28  80 28  L 4 28  C 1.75999999999999 28  0 26.24  0 24  Z " fill-rule="evenodd" />
    </mask>
  </defs>
  <g transform="matrix(1 0 0 1 -482 -8 )">
    <path d="M 0 24  L 0 4  C 0 1.76  1.75999999999999 0  4 0  L 54.6000000000022 0  L 80 0  C 82.24 0  84 1.76  84 4  L 84 24  C 84 26.24  82.24 28  80 28  L 4 28  C 1.75999999999999 28  0 26.24  0 24  Z " fill-rule="nonzero" fill="#e8f5ff" stroke="none" transform="matrix(1 0 0 1 482 8 )" />
    <path d="M 0 24  L 0 4  C 0 1.76  1.75999999999999 0  4 0  L 54.6000000000022 0  L 80 0  C 82.24 0  84 1.76  84 4  L 84 24  C 84 26.24  82.24 28  80 28  L 4 28  C 1.75999999999999 28  0 26.24  0 24  Z " stroke-width="2" stroke="#1979ff" fill="none" transform="matrix(1 0 0 1 482 8 )" mask="url(#clip2)" />
  </g>
</svg>